HIERARCHY
ROOT Hips
{
	OFFSET 0.00000 0.00000 0.00000
	CHANNELS 6 Xposition Yposition Zposition Zrotation Yrotation Xrotation 
	JOINT LHipJoint
	{
		OFFSET 0 0 0
		CHANNELS 3 Zrotation Yrotation Xrotation
		JOINT LeftUpLeg
		{
			OFFSET 1.53927 -1.56553 0.51726
			CHANNELS 3 Zrotation Yrotation Xrotation
			JOINT LeftLeg
			{
				OFFSET 2.38199 -6.54447 0.00000
				CHANNELS 3 Zrotation Yrotation Xrotation
				JOINT LeftFoot
				{
					OFFSET 2.35499 -6.47028 0.00000
					CHANNELS 3 Zrotation Yrotation Xrotation
					JOINT LeftToeBase
					{
						OFFSET 0.13641 -0.37478 1.84251
						CHANNELS 3 Zrotation Yrotation Xrotation
						End Site
						{
							OFFSET 0.00000 -0.00000 0.95212
						}
					}
				}
			}
		}
	}
	JOINT RHipJoint
	{
		OFFSET 0 0 0
		CHANNELS 3 Zrotation Yrotation Xrotation
		JOINT RightUpLeg
		{
			OFFSET -1.43919 -1.56553 0.51726
			CHANNELS 3 Zrotation Yrotation Xrotation
			JOINT RightLeg
			{
				OFFSET -2.34860 -6.45274 0.00000
				CHANNELS 3 Zrotation Yrotation Xrotation
				JOINT RightFoot
				{
					OFFSET -2.25563 -6.19730 0.00000
					CHANNELS 3 Zrotation Yrotation Xrotation
					JOINT RightToeBase
					{
						OFFSET -0.19755 -0.54277 1.84912
						CHANNELS 3 Zrotation Yrotation Xrotation
						End Site
						{
							OFFSET -0.00000 -0.00000 0.97032
						}
					}
				}
			}
		}
	}
	JOINT LowerBack
	{
		OFFSET 0 0 0
		CHANNELS 3 Zrotation Yrotation Xrotation
		JOINT Spine
		{
			OFFSET -0.06402 1.88434 -0.00445
			CHANNELS 3 Zrotation Yrotation Xrotation
			JOINT Spine1
			{
				OFFSET 0.00756 1.88511 0.04237
				CHANNELS 3 Zrotation Yrotation Xrotation
				JOINT Neck
				{
					OFFSET 0 0 0
					CHANNELS 3 Zrotation Yrotation Xrotation
					JOINT Neck1
					{
						OFFSET -0.06230 1.34710 0.03308
						CHANNELS 3 Zrotation Yrotation Xrotation
						JOINT Head
						{
							OFFSET -0.02442 1.34501 -0.13654
							CHANNELS 3 Zrotation Yrotation Xrotation
							End Site
							{
								OFFSET -0.00508 1.35584 -0.05075
							}
						}
					}
				}
				JOINT LeftShoulder
				{
					OFFSET 0 0 0
					CHANNELS 3 Zrotation Yrotation Xrotation
					JOINT LeftArm
					{
						OFFSET 2.76911 0.54460 0.39412
						CHANNELS 3 Zrotation Yrotation Xrotation
						JOINT LeftForeArm
						{
							OFFSET 4.40919 -0.00000 -0.00000
							CHANNELS 3 Zrotation Yrotation Xrotation
							JOINT LeftHand
							{
								OFFSET 3.03857 -0.00000 -0.00000
								CHANNELS 3 Zrotation Yrotation Xrotation
								JOINT LeftFingerBase
								{
									OFFSET 0 0 0
									CHANNELS 3 Zrotation Yrotation Xrotation
									JOINT LeftHandIndex1
									{
										OFFSET 0.52321 -0.00000 -0.00000
										CHANNELS 3 Zrotation Yrotation Xrotation
										End Site
										{
											OFFSET 0.42182 -0.00000 -0.00000
										}
									}
								}
								JOINT LThumb
								{
									OFFSET 0 0 0
									CHANNELS 3 Zrotation Yrotation Xrotation
									End Site
									{
										OFFSET 0.42826 -0.00000 0.42826
									}
								}
							}
						}
					}
				}
				JOINT RightShoulder
				{
					OFFSET 0 0 0
					CHANNELS 3 Zrotation Yrotation Xrotation
					JOINT RightArm
					{
						OFFSET -2.99050 0.75949 0.48975
						CHANNELS 3 Zrotation Yrotation Xrotation
						JOINT RightForeArm
						{
							OFFSET -4.61969 -0.00000 -0.00000
							CHANNELS 3 Zrotation Yrotation Xrotation
							JOINT RightHand
							{
								OFFSET -3.09382 -0.00000 -0.00000
								CHANNELS 3 Zrotation Yrotation Xrotation
								JOINT RightFingerBase
								{
									OFFSET 0 0 0
									CHANNELS 3 Zrotation Yrotation Xrotation
									JOINT RightHandIndex1
									{
										OFFSET -0.50090 -0.00000 -0.00000
										CHANNELS 3 Zrotation Yrotation Xrotation
										End Site
										{
											OFFSET -0.40384 -0.00000 -0.00000
										}
									}
								}
								JOINT RThumb
								{
									OFFSET 0 0 0
									CHANNELS 3 Zrotation Yrotation Xrotation
									End Site
									{
										OFFSET -0.41000 -0.00000 0.41000
									}
								}
							}
						}
					}
				}
			}
		}
	}
}
MOTION
Frames: 6
Frame Time: .0083333
19.0526 16.1294 5.3994 -171.0190 -71.3143 180.4420 0.0000 0.0000 0.0000 -21.7603 -8.6209 -20.2501 2.8803 10.4987 30.6071 0.0627 11.3159 -16.9725 0.6311 5.0832 14.1460 0.0000 0.0000 0.0000 -9.1425 38.6481 -53.8773 -14.6977 -19.3121 74.3244 -1.1437 -5.7662 19.1220 -0.0067 -0.5292 1.4543 2.6562 -0.7480 13.8087 5.7549 -0.5667 2.2844 4.7107 -0.4109 -5.2950 -3.3489 -1.2383 -6.4665 -11.5764 0.2066 25.0188 -3.4484 -1.8284 8.9224 -0.0000 0.0000 0.0000 -48.4361 22.8155 6.9488 145.7757 -44.2502 -105.7307 -0.0000 -0.0000 1.2623 41.3537 -5.8553 -5.1310 -7.1250 0.0000 -0.0000 10.6650 22.2420 -5.9354 -0.0000 0.0000 0.0000 47.8698 -22.1987 -24.2011 -119.1268 56.5382 -84.9314 0.0000 -0.0000 -13.2039 -9.9696 -41.0968 6.5911 7.1250 -0.0000 -0.0000 36.7954 -68.1296 -21.5344
19.0717 16.1366 5.4186 -171.4480 -71.3415 180.9280 0.0000 0.0000 0.0000 -21.9259 -8.6956 -20.2343 2.8155 10.3902 30.2499 0.0403 11.2659 -16.6013 0.6844 5.2894 14.7360 0.0000 0.0000 0.0000 -10.1631 38.7929 -54.8313 -15.2286 -19.4452 75.9244 -1.2092 -5.4439 19.6967 -0.0076 -0.5614 1.5427 2.7240 -0.8014 14.1236 5.7722 -0.6118 2.2904 4.7101 -0.4355 -5.4597 -0.7316 -0.6081 -9.5757 -14.4924 1.6878 28.4930 -5.0944 -1.5246 10.9050 -0.0000 -0.0000 0.0000 -48.6097 22.0805 6.4527 146.6785 -43.5757 -106.3568 -0.0000 -0.0000 1.4951 40.6770 -5.4835 -4.6950 -7.1250 0.0000 -0.0000 10.2416 22.7951 -5.5604 -0.0000 -0.0000 0.0000 46.7169 -21.7477 -24.4007 -121.8156 55.8064 -87.1652 0.0000 -0.0000 -13.9609 -11.0027 -42.1804 7.4380 7.1250 -0.0000 -0.0000 37.6155 -69.2784 -23.0015
19.0870 16.1452 5.4363 -172.1000 -71.1726 181.5880 0.0000 0.0000 0.0000 -22.1838 -8.5360 -20.1905 2.7464 10.2728 29.8646 0.0249 11.1979 -16.2947 0.6686 5.2290 14.5628 0.0000 0.0000 0.0000 -11.2368 39.0263 -55.7736 -15.7657 -19.5646 77.5327 -1.2717 -5.2364 20.2325 -0.0054 -0.4752 1.3058 2.7010 -0.8231 14.4053 5.7142 -0.6402 2.3854 4.6731 -0.4516 -5.5121 -3.3727 -1.0735 -6.5692 -11.5716 0.4462 24.7058 -3.4087 -1.6983 8.8454 0.0000 0.0000 0.0000 -48.8487 21.3114 6.0439 147.5146 -42.9307 -106.9298 -0.0000 -0.0000 1.9966 40.1647 -5.5587 -4.6738 -7.1250 0.0000 -0.0000 9.8623 22.7504 -5.3585 0.0000 0.0000 0.0000 46.0946 -20.3698 -25.0807 -123.5700 55.2810 -88.6119 0.0000 -0.0000 -14.0735 -10.9256 -42.5506 7.4371 7.1250 -0.0000 -0.0000 38.3811 -69.5294 -23.7238
19.1022 16.1573 5.4519 -172.4290 -71.0209 181.8740 0.0000 0.0000 0.0000 -22.3366 -8.2933 -20.0881 2.6725 10.1450 29.4476 0.0046 11.1027 -15.8716 0.6570 5.1846 14.4358 0.0000 0.0000 0.0000 -12.0995 39.2203 -56.6058 -16.2845 -19.6658 79.0783 -1.3064 -5.2510 20.5150 -0.0110 -0.6766 1.8594 2.7031 -0.8789 14.7923 5.6862 -0.7037 2.4684 4.6655 -0.4859 -5.6327 -2.6342 -0.7367 -6.3406 -12.4331 0.9392 24.2590 -3.7683 -1.4599 8.6693 0.0000 0.0000 0.0000 -49.3156 20.7614 5.8141 148.5274 -42.1227 -107.6144 -0.0000 -0.0000 2.6772 39.9771 -5.7531 -4.8041 -7.1250 0.0000 -0.0000 9.6981 22.5207 -5.3184 0.0000 0.0000 0.0000 45.3949 -19.2676 -25.1465 -125.4722 54.6660 -90.1696 0.0000 -0.0000 -14.6467 -11.5793 -42.7146 7.9128 7.1250 -0.0000 -0.0000 38.0137 -69.8649 -23.7462
19.1147 16.1718 5.4643 -172.6840 -70.8916 182.1650 0.0000 0.0000 0.0000 -22.4497 -8.1511 -20.0220 2.6001 10.0177 29.0342 -0.0270 11.1455 -15.4653 0.6424 5.1277 14.2731 0.0000 0.0000 0.0000 -12.9367 39.3073 -57.4863 -16.7665 -19.7475 80.5077 -1.3503 -5.4185 20.8551 -0.0363 -1.2306 3.3836 2.6535 -0.8893 15.0551 5.6899 -0.7105 2.4622 4.7097 -0.4885 -5.7827 -2.7693 -0.8011 -6.2793 -12.2409 0.8234 24.4205 -3.6947 -1.5168 8.7070 -0.0000 0.0000 0.0000 -49.8117 20.1710 6.0939 149.6489 -41.1924 -108.3599 -0.0000 -0.0000 3.2935 39.4931 -5.6150 -4.6101 -7.1250 0.0000 -0.0000 9.3711 22.7454 -5.0854 -0.0000 0.0000 0.0000 44.7588 -18.5160 -25.1006 -127.2656 54.0405 -91.6270 0.0000 -0.0000 -15.3161 -12.1933 -42.9829 8.3806 7.1250 -0.0000 -0.0000 37.8930 -70.2670 -23.9873
19.1286 16.1850 5.4743 -173.1190 -70.6872 182.7010 0.0000 0.0000 0.0000 -22.6015 -8.0443 -20.0405 2.5346 9.9005 28.6552 -0.0517 11.1914 -15.1551 0.6620 5.2037 14.4903 0.0000 0.0000 0.0000 -13.8791 39.3389 -58.4983 -17.2059 -19.8118 81.8060 -1.4145 -5.6094 21.3465 -0.0469 -1.3969 3.8417 2.5786 -0.8222 15.1756 5.6054 -0.6328 2.5077 4.6483 -0.4490 -5.8052 -2.7298 -0.6886 -5.9567 -12.2140 0.9271 24.0456 -3.6608 -1.4283 8.5213 0.0000 0.0000 0.0000 -50.1396 19.2245 6.8865 150.5832 -40.3882 -108.9703 -0.0000 -0.0000 3.9887 39.2440 -5.5484 -4.5158 -7.1250 0.0000 -0.0000 9.2014 22.8541 -4.9678 0.0000 0.0000 0.0000 44.5282 -17.7500 -25.2152 -128.7525 53.4864 -92.8264 0.0000 -0.0000 -15.6599 -12.2700 -42.9250 8.4252 7.1250 -0.0000 -0.0000 37.6993 -70.2497 -23.8394
